<svg xmlns="http://www.w3.org/2000/svg" width="176.85185177826588" height="65.85185177826588" style=""><rect id="backgroundrect" width="100%" height="100%" x="0" y="0" fill="none" stroke="none" class="" style=""/>
  
<g class="currentLayer" style=""><title>Layer 1</title><rect fill="#ffffff" stroke="#004999" stroke-width="2" stroke-dashoffset="" fill-rule="nonzero" id="svg_4" x="0" y="1" width="174.59259033203125" height="62.37036895751953" style="color: rgb(0, 71, 142);" class="" stroke-opacity="1"/><g id="Group_1" data-name="Group 1" class="">
    <path id="Path_13" data-name="Path 13" d="M15.021555820465164,4.629629611968994 H50.976555820465144 a9.466,9.466 0 0 1 9.466,9.466 V50.050629611968986 a9.466,9.466 0 0 1 -9.466,9.466 H15.021555820465164 A9.466,9.466 0 0 1 5.555555820465155,50.050629611968986 V14.095629611969002 A9.466,9.466 0 0 1 15.021555820465164,4.629629611968994 z" fill="#004bca"/>
    <path id="Path_1" data-name="Path 1" d="M43.04055594253547,11.998630619049067 H21.602555942535457 a1.971,1.971 0 0 0 -1.972,1.972 V18.423630619049078 h20.2 z" fill="lime"/>
    <path id="Path_2" data-name="Path 2" d="M39.828557773590155,18.42062860488892 h-21.8 a2,2 0 0 0 -2,2 v5.157 h20.219 z" fill="red"/>
    <path id="Path_3" data-name="Path 3" d="M36.250561679840146,25.575630207061778 H14.556561679840154 a2.136,2.136 0 0 0 -2.136,2.136 V50.525630207061795 a2.135,2.135 0 0 0 2.136,2.135 h8.15 z" fill="#f1f1f1"/>
    <ellipse id="Ellipse_1" data-name="Ellipse 1" cx="18.18054962158203" cy="31.01561737060547" rx="3.4749999046325684" ry="3.3959999084472656" fill="#d0d0d0"/>
    <rect id="Rectangle_2" data-name="Rectangle 2" width="6.564000129699707" height="2.3320000171661377" rx="1.1660000085830688" fill="#d0d0d0" y="44.30461502075195" x="14.705549240112305"/>
    <rect id="Rectangle_3" data-name="Rectangle 3" width="9.02299976348877" height="1.4279999732971191" rx="0.7139999866485596" fill="#d0d0d0" y="47.80263137817383" x="14.705549240112305"/>
    <path id="Path_4" data-name="Path 4" d="M46.725560092926095,4.629629917144769 l-27.448,54.888 h31.641000000000002 a9.524000000000001,9.524000000000001 0 0 0 9.524000000000001,-9.524000000000001 V14.15362991714477 a9.524000000000001,9.524000000000001 0 0 0 -9.524000000000001,-9.524000000000001 z" fill="#0b78e3"/>
    <path id="Path_5" data-name="Path 5" d="M23.37956155776983,46.63662952041625 H25.71456155776984 l1.166,-2.332 h-3.505 a0.9450000000000005,0.9450000000000005 0 0 0 -0.9450000000000005,0.9440000000000005 v0.4430000000000003 A0.9450000000000005,0.9450000000000005 0 0 0 23.37956155776983,46.63662952041625 z" fill="#d0d0d0"/>
    <path id="Path_6" data-name="Path 6" d="M42.71655856704718,46.525630023956296 a5.253,5.253 0 0 0 9.262,2.042 a0.3800000000000003,0.3800000000000003 0 0 1 0.5710000000000005,-0.023000000000000034 l0.78,0.8160000000000005 a0.3790000000000003,0.3790000000000003 0 0 1 0.027000000000000034,0.5 a6.758,6.758 0 0 1 -5.55,2.648 c-3.762,0 -6.38,-2.313 -7.257,-5.979 h-1.774 a0.3810000000000003,0.3810000000000003 0 0 1 -0.3810000000000003,-0.3810000000000003 v-0.8940000000000007 a0.3810000000000003,0.3810000000000003 0 0 1 0.3810000000000003,-0.3810000000000003 h1.518 c-0.03700000000000001,-0.3770000000000003 -0.04900000000000004,-0.7430000000000005 -0.04900000000000004,-1.133 s0.012000000000000009,-0.7550000000000006 0.04900000000000004,-1.1320000000000001 h-1.518 a0.3810000000000003,0.3810000000000003 0 0 1 -0.3810000000000003,-0.3810000000000003 v-0.8940000000000007 a0.3810000000000003,0.3810000000000003 0 0 1 0.3810000000000003,-0.3810000000000003 h1.774 c0.8760000000000006,-3.652 3.482,-5.978 7.257,-5.978 a6.961,6.961 0 0 1 5.586,2.569 a0.38300000000000034,0.38300000000000034 0 0 1 -0.016000000000000018,0.506 l-0.8380000000000005,0.8830000000000007 a0.3800000000000003,0.3800000000000003 0 0 1 -0.5720000000000005,-0.022000000000000033 a5.244,5.244 0 0 0 -9.249,2.042 h7.071 a0.3810000000000003,0.3810000000000003 0 0 1 0.3810000000000003,0.3810000000000003 v0.8940000000000007 a0.3810000000000003,0.3810000000000003 0 0 1 -0.3810000000000003,0.3810000000000003 H42.400558567047206 c-0.03700000000000001,0.3780000000000003 -0.04900000000000004,0.7430000000000005 -0.04900000000000004,1.1320000000000001 s0.012000000000000009,0.7550000000000006 0.04900000000000004,1.133 h7.3870000000000005 a0.3810000000000003,0.3810000000000003 0 0 1 0.3810000000000003,0.3810000000000003 v0.8940000000000007 a0.3810000000000003,0.3810000000000003 0 0 1 -0.3810000000000003,0.3810000000000003 z" fill="#fff"/>
    <path id="Path_7" data-name="Path 7" d="M94.78255704116829,30.687628879547105 v8.431000000000001 H91.23055704116827 v-7.283 c0,-1.927 -0.9560000000000005,-2.965 -2.583,-2.965 a2.708,2.708 0 0 0 -2.8,2.993 v7.256 H82.28055704116828 v-7.283 c0,-1.927 -0.9430000000000005,-2.965 -2.582,-2.965 a2.708,2.708 0 0 0 -2.8,2.993 v7.256 H73.33055704116829 v-13.24 H76.80055704116826 v1.558 a4.422,4.422 0 0 1 3.894,-1.913 a4.969,4.969 0 0 1 4.373,2.268 a5.346,5.346 0 0 1 9.715,2.9 z"/>
    <path id="Path_8" data-name="Path 8" d="M103.41455551528936,23.555631412506102 v15.563 h-3.8120000000000003 V23.555631412506102 h-5.93 V19.99163141250611 h15.672 v3.566 z"/>
    <path id="Path_9" data-name="Path 9" d="M118.36055771255498,39.118628879547146 v-1.462 a4.838,4.838 0 0 1 -3.963,1.8 c-3.662,0 -6.408,-2.992 -6.408,-6.969 s2.747,-6.969 6.408,-6.969 a4.808,4.808 0 0 1 3.963,1.8170000000000002 v-1.462 h3.484 v13.24 zm-6.723,-6.627 a3.423,3.423 0 1 0 3.416,-3.648 A3.408,3.408 0 0 0 111.63755771255502,32.49162887954711 z"/>
    <path id="Path_10" data-name="Path 10" d="M130.37355362319948,28.487630100250243 c-1.366,0 -2.036,0.47800000000000026 -2.036,1.2 c0,0.779 0.9560000000000005,0.9570000000000005 2.159,1.134 l1.175,0.17800000000000013 c2.883,0.4370000000000003 4.468,1.7080000000000002 4.468,3.963 c0,2.733 -2.241,4.5 -6.08,4.5 a10.665000000000001,10.665000000000001 0 0 1 -5.889,-1.558 l1.407,-2.706 a7.75,7.75 0 0 0 4.509,1.3 c1.6540000000000008,0 2.446,-0.465 2.446,-1.243 c0,-0.6420000000000007 -0.6560000000000007,-1 -2.2,-1.216 l-1.08,-0.15100000000000013 q-4.57,-0.6350000000000007 -4.577,-4.017 c0,-2.7190000000000003 2.1,-4.332 5.589,-4.332 a11.66,11.66 0 0 1 5.534,1.2570000000000001 l-1.2,2.774 A10.669,10.669 0 0 0 130.37355362319948,28.487630100250243 z"/>
    <path id="Path_11" data-name="Path 11" d="M143.37655319595348,30.591629337310792 l3.73,-4.714 h4.373 l-5.22,6.231 l5.26,7.01 H147.13255319595345 l-3.8120000000000003,-5.356 h-1.2 V39.1176293373108 h-3.566 V19.44262933731079 h3.566 v11.149000000000001 z"/>
    <path id="Path_12" data-name="Path 12" d="M159.2975558204651,39.460629901885966 c-3.3200000000000003,0 -6.272,-1.8 -6.272,-5.985 v-7.6 h3.567 v7.283 c0,2.118 1.161,2.979 2.706,2.979 s2.706,-0.8610000000000005 2.706,-2.979 V25.875629901885986 H165.55555582046514 v7.6 C165.55555582046514,37.65662990188599 162.61755582046516,39.460629901885966 159.2975558204651,39.460629901885966 z"/>
  </g><rect fill="none" stroke-dashoffset="" fill-rule="nonzero" id="svg_1" x="0" y="1" width="27" height="29" style="color: rgb(0, 0, 0);"/><rect fill="none" stroke-dashoffset="" fill-rule="nonzero" id="svg_3" x="7" y="5" width="30" height="31" style="color: rgb(0, 0, 0);"/></g></svg>