<svg xmlns="http://www.w3.org/2000/svg" width="160" height="54.888" viewBox="0 0 160 54.888">
  <g id="Group_1" data-name="Group 1" transform="translate(-347 -256)">
    <path id="Path_13" data-name="Path 13" d="M9.466,0H45.421a9.466,9.466,0,0,1,9.466,9.466V45.421a9.466,9.466,0,0,1-9.466,9.466H9.466A9.466,9.466,0,0,1,0,45.421V9.466A9.466,9.466,0,0,1,9.466,0Z" transform="translate(347 256)" fill="#004bca"/>
    <path id="Path_1" data-name="Path 1" d="M227.638,203.475H206.2a1.971,1.971,0,0,0-1.972,1.972V209.9h20.2Z" transform="translate(156.847 59.894)" fill="lime"/>
    <path id="Path_2" data-name="Path 2" d="M216.346,224.31h-21.8a2,2,0,0,0-2,2v5.157h20.219Z" transform="translate(164.927 45.481)" fill="red"/>
    <path id="Path_3" data-name="Path 3" d="M204.664,247.52H182.97a2.136,2.136,0,0,0-2.136,2.136V272.47a2.135,2.135,0,0,0,2.136,2.135h8.15Z" transform="translate(173.031 29.426)" fill="#f1f1f1"/>
    <ellipse id="Ellipse_1" data-name="Ellipse 1" cx="3.475" cy="3.396" rx="3.475" ry="3.396" transform="translate(356.15 278.99)" fill="#d0d0d0"/>
    <rect id="Rectangle_2" data-name="Rectangle 2" width="6.564" height="2.332" rx="1.166" transform="translate(356.15 295.675)" fill="#d0d0d0"/>
    <rect id="Rectangle_3" data-name="Rectangle 3" width="9.023" height="1.428" rx="0.714" transform="translate(356.15 299.173)" fill="#d0d0d0"/>
    <path id="Path_4" data-name="Path 4" d="M230.525,179.57l-27.448,54.888h31.641a9.524,9.524,0,0,0,9.524-9.524V189.094a9.524,9.524,0,0,0-9.524-9.524Z" transform="translate(157.645 76.43)" fill="#0b78e3"/>
    <path id="Path_5" data-name="Path 5" d="M214.265,310.611H216.6l1.166-2.332h-3.505a.945.945,0,0,0-.945.944v.443A.945.945,0,0,0,214.265,310.611Z" transform="translate(150.559 -12.604)" fill="#d0d0d0"/>
    <path id="Path_6" data-name="Path 6" d="M269.416,289.553a5.253,5.253,0,0,0,9.262,2.042.38.38,0,0,1,.571-.023l.78.816a.379.379,0,0,1,.027.5,6.758,6.758,0,0,1-5.55,2.648c-3.762,0-6.38-2.313-7.257-5.979h-1.774a.381.381,0,0,1-.381-.381v-.894a.381.381,0,0,1,.381-.381h1.518c-.037-.377-.049-.743-.049-1.133s.012-.755.049-1.132h-1.518a.381.381,0,0,1-.381-.381v-.894a.381.381,0,0,1,.381-.381h1.774c.876-3.652,3.482-5.978,7.257-5.978a6.961,6.961,0,0,1,5.586,2.569.383.383,0,0,1-.016.506l-.838.883a.38.38,0,0,1-.572-.022,5.244,5.244,0,0,0-9.249,2.042h7.071a.381.381,0,0,1,.381.381v.894a.381.381,0,0,1-.381.381H269.1c-.037.378-.049.743-.049,1.132s.012.755.049,1.133h7.387a.381.381,0,0,1,.381.381v.894a.381.381,0,0,1-.381.381Z" transform="translate(114.745 8.343)" fill="#fff"/>
    <path id="Path_7" data-name="Path 7" d="M399.882,252.515v8.431H396.33v-7.283c0-1.927-.956-2.965-2.583-2.965a2.708,2.708,0,0,0-2.8,2.993v7.256H387.38v-7.283c0-1.927-.943-2.965-2.582-2.965a2.708,2.708,0,0,0-2.8,2.993v7.256H378.43v-13.24H381.9v1.558a4.422,4.422,0,0,1,3.894-1.913,4.969,4.969,0,0,1,4.373,2.268,5.346,5.346,0,0,1,9.715,2.9Z" transform="translate(36.345 29.543)"/>
    <path id="Path_8" data-name="Path 8" d="M454.164,232.964v15.563h-3.812V232.964h-5.93V229.4h15.672v3.566Z" transform="translate(-9.305 41.962)"/>
    <path id="Path_9" data-name="Path 9" d="M501.239,260.946v-1.462a4.838,4.838,0,0,1-3.963,1.8c-3.662,0-6.408-2.992-6.408-6.969s2.747-6.969,6.408-6.969a4.808,4.808,0,0,1,3.963,1.817v-1.462h3.484v13.24Zm-6.723-6.627a3.423,3.423,0,1,0,3.416-3.648A3.408,3.408,0,0,0,494.516,254.319Z" transform="translate(-41.434 29.543)"/>
    <path id="Path_10" data-name="Path 10" d="M549.564,250.345c-1.366,0-2.036.478-2.036,1.2,0,.779.956.957,2.159,1.134l1.175.178c2.883.437,4.468,1.708,4.468,3.963,0,2.733-2.241,4.5-6.08,4.5a10.665,10.665,0,0,1-5.889-1.558l1.407-2.706a7.75,7.75,0,0,0,4.509,1.3c1.654,0,2.446-.465,2.446-1.243,0-.642-.656-1-2.2-1.216l-1.08-.151q-4.57-.635-4.577-4.017c0-2.719,2.1-4.332,5.589-4.332a11.66,11.66,0,0,1,5.534,1.257l-1.2,2.774A10.669,10.669,0,0,0,549.564,250.345Z" transform="translate(-77.746 29.513)"/>
    <path id="Path_11" data-name="Path 11" d="M594.844,238.774l3.73-4.714h4.373l-5.22,6.231,5.26,7.01H598.6l-3.812-5.356h-1.2V247.3h-3.566V227.625h3.566v11.149Z" transform="translate(-110.023 43.188)"/>
    <path id="Path_12" data-name="Path 12" d="M643.242,262.085c-3.32,0-6.272-1.8-6.272-5.985v-7.6h3.567v7.283c0,2.118,1.161,2.979,2.706,2.979s2.706-.861,2.706-2.979V248.5H649.5v7.6C649.5,260.281,646.562,262.085,643.242,262.085Z" transform="translate(-142.5 28.746)"/>
  </g>
</svg>
